<svg xmlns="http://www.w3.org/2000/svg" width="1240" height="1240"><path d="M405.885 278.38c-5.692 2.034-9.54 5.276-11.799 9.943-2.739 5.657-2.621 11.421.427 20.965 3.942 12.343 5.908 11.127-20.263 12.528-34.874 1.868-53.677 5.86-73.75 15.658-40.193 19.62-52.545 59.569-26.067 84.307 12.685 11.853 25.99 16.426 48.067 16.523 25.312.111 49.375-6.716 69.456-19.707 3.874-2.506 7.044-4.159 7.044-3.674 0 .486-1.31 8.464-2.911 17.73s-3.682 24.272-4.624 33.347c-.943 9.075-1.836 16.975-1.984 17.556-.148.581-3.291 2.823-6.983 4.983-18.088 10.578-28.901 31.822-25.7 50.489 3.696 21.554 21.853 39.125 47.702 46.162 6.85 1.864 10.586 2.175 26 2.158 16.215-.017 18.97-.278 27.78-2.633 23.556-6.298 45.845-22.89 61.027-45.428 2.306-3.423 4.418-6.235 4.693-6.248.275-.014 1.625 1.629 3 3.651 3.321 4.883 12.686 11.672 19.775 14.336 4.38 1.646 7.37 2.07 12.725 1.804 10.721-.531 19.327-5.381 27.752-15.639l2.718-3.309 3.765 2.95c7.607 5.96 17.55 6.642 27.076 1.857l4.91-2.466.592 7.638c1.254 16.183 6.839 27.735 15.76 32.596 4.843 2.64 6.342 2.952 13.927 2.902 14.634-.097 26.355-6.521 37.72-20.676l5.768-7.183h10.006c9.509 0 10.398-.187 17.902-3.77 4.343-2.074 7.99-3.649 8.104-3.5.114.148 1.697 3.332 3.518 7.075 10.066 20.69 32.781 24.774 48.463 8.715l3.684-3.774 5.021 3.379c10.65 7.167 25.537 8.396 37.174 3.068 14.008-6.413 28.885-28.797 31.141-46.854 1.345-10.767-4.105-21.447-11.949-23.415-2.335-.586-2.406-.881-2.233-9.265.158-7.662-.144-9.315-2.619-14.358-5.173-10.539-15.261-15.39-30.359-14.597-4.587.24-8.341.28-8.341.087 0-.193 1.074-2.925 2.388-6.071 4.014-9.617 9.375-27.245 11.635-38.262 3.053-14.883 2.535-31.267-1.217-38.458-3.179-6.095-5.925-8.75-11.806-11.416-5.093-2.309-13.789-2.733-19.101-.931-18.904 6.414-36.244 35.092-47.37 78.347-1.84 7.15-3.597 14.147-3.906 15.55-.507 2.306-1.283 2.671-8.114 3.819-9.185 1.543-20.767 7.107-28.509 13.695-3.025 2.575-5.86 5.301-6.3 6.058-1.722 2.967-2.447 1.011-2.919-7.872-.598-11.24-3.264-18.147-9.011-23.339-12.529-11.319-30.157-11.372-45.465-.135l-4.856 3.565-5.975-2.103c-4.278-1.505-8.529-2.121-14.974-2.17-11.264-.085-14.816 1.639-18.571 9.016l-2.571 5.051-5.73-6.288c-4.188-4.596-7.715-7.269-13.108-9.934-6.86-3.391-7.856-3.611-14.199-3.136-3.751.282-7.764.819-8.917 1.194-2.018.656-2.12.276-2.715-10.145-.752-13.168-3.336-24.155-8.495-36.123-13.614-31.577-40.351-54.033-77.694-65.256l-9-2.704-.637-12.372c-.806-15.668-3.084-22.377-9.838-28.974-2.858-2.791-6.616-5.251-9.547-6.25-5.866-1.998-21.314-2.154-26.593-.267m-.385 6.344c-5.677 1.395-7.252 5.877-4.253 12.1l2.253 4.676 4.21-8.75c4.544-9.443 4.481-9.671-2.21-8.026m52.889 5.706c-.991 2.58.38 4.57 3.146 4.57 2.244 0 2.555-.375 2.281-2.75-.364-3.171-4.391-4.521-5.427-1.82M475 301c0 1.506.522 2.046 1.75 1.81.962-.186 1.75-1 1.75-1.81s-.788-1.624-1.75-1.81c-1.228-.236-1.75.304-1.75 1.81m-165.757 5.157c-2.899 2.899-.307 7.273 3.952 6.67 1.905-.27 2.305-.934 2.305-3.827 0-2.991-.364-3.543-2.507-3.793-1.379-.161-3.066.266-3.75.95m150.18 6.295c-.739 2.944.94 5.548 3.577 5.548 2.424 0 4.218-2.435 3.827-5.195-.252-1.779-1.061-2.376-3.543-2.616-2.738-.265-3.311.071-3.861 2.263M295.5 321.659c-38.571 4.627-61.457 17.807-59.029 33.996 1.286 8.575 9.743 14.578 17.431 12.373 4.52-1.296 5.751-2.482 10.891-10.492 8.766-13.661 18.786-21.219 39.957-30.138 6.188-2.607 11.25-5.112 11.25-5.569 0-.796-14.288-.915-20.5-.17m71.689 7.418c-23.51 1.497-46.802 5.905-60.409 11.434-15.802 6.421-28.136 16.442-33.899 27.54-3.105 5.98-3.35 7.14-3.365 15.949-.014 8.141.336 10.189 2.445 14.317 4.468 8.747 13.643 15.408 26.582 19.298 7.265 2.184 31.264 2.311 41.457.219l6.5-1.334 6.745-13.183 6.745-13.182-7.626 3.523c-22.796 10.533-50.403 11.593-61.54 2.364-4.454-3.69-6.264-8.603-5.369-14.571 2.154-14.363 22.574-27.228 50.545-31.843 11.973-1.975 29.389-3.606 38.527-3.607l7.027-.001 4.223-8.515c2.323-4.683 4.223-8.733 4.223-9 0-.602-6.852-.424-22.811.592M452 340.242c31.701 14.038 47.537 25.486 57.436 41.523 2.127 3.446 4.07 6.062 4.318 5.814.888-.887-4.546-11.188-9.019-17.097-9.421-12.445-25.39-23.125-43.338-28.984-8.012-2.615-14.393-3.468-9.397-1.256m320.396 9.008c-8.988 6.048-14.065 15.283-17.056 31.025-2.077 10.93-1.438 12.262 2.414 5.035 4.975-9.334 11.603-17.772 17.45-22.216 2.913-2.214 6.533-4.975 8.046-6.136 3.284-2.52 3.586-6.122.75-8.958-2.835-2.835-6.047-2.489-11.604 1.25m15.026 19.168c-3.019 1.315-9.422 8.108-9.422 9.997 0 .528 1.237-.204 2.75-1.626 4.905-4.611 10.459-7.789 13.64-7.804 2.376-.012 2.756-.245 1.61-.985-2.043-1.321-4.905-1.181-8.578.418m135.674 1.024c-9.359 3.056-18.619 11.62-23.885 22.088-6.543 13.008-7.113 27.595-2.186 55.97 5.702 32.843 6.211 36.904 6.262 50 .04 10.109-.434 14.974-2.129 21.877-3.483 14.18-11.13 29.052-19.968 38.834-1.882 2.084-3.129 3.789-2.771 3.789.359 0 5.124-2.791 10.59-6.202 27.743-17.316 53.124-45.281 67.432-74.298 11.028-22.365 15.864-41.353 15.918-62.5.017-6.875-.557-15.2-1.277-18.5-3.241-14.853-11.097-25.469-21.861-29.543-7.33-2.775-20.016-3.51-26.125-1.515m-177.402 14.197c-.933.934.194 2.361 1.865 2.361.793 0 1.441-.675 1.441-1.5 0-1.506-2.111-2.056-3.306-.861m-1.683 10.848c-1.479 1.782-.694 4.314 1.611 5.198 2.368.909 4.616-2.372 3.304-4.823-1.201-2.244-3.235-2.399-4.915-.375m-336.378 25.188c-1.815 6.028-5.01 24.741-6.202 36.325-1.299 12.622-1.97 36.872-.993 35.895.242-.241 1.603-11.454 3.027-24.917 1.423-13.463 3.192-29.878 3.931-36.478 1.305-11.655 1.369-14.586.237-10.825m-35.515 15.369c-3.509 1.624-10.034 4.161-14.5 5.639-7.233 2.395-9.68 2.695-22.448 2.752-12.989.059-14.464.247-15.75 2.006-2.183 2.984-1.737 7.333 1.035 10.104 2.263 2.264 3.197 2.455 12.019 2.455 10.916 0 17.105-1.968 27.212-8.654 5.067-3.352 20.675-17.307 19.314-17.268-.275.007-3.372 1.342-6.882 2.966m3.125 13.113c-3.079 3.079-.098 7.525 4.305 6.42 2.192-.55 2.528-1.123 2.263-3.861-.25-2.586-.802-3.273-2.818-3.509-1.379-.161-3.066.266-3.75.95M653.5 448c-1.613.693-1.286.873 1.685.93 5.093.097 8.75 1.647 12.565 5.328 3.559 3.432 4.02 3.131 1.794-1.173-2.498-4.831-10.634-7.41-16.044-5.085m-99 2.692c7.045 1.62 9.65 2.599 13.048 4.905 3.803 2.581 3.815 2.582 2.303.249-2.22-3.427-7.678-5.86-12.851-5.728-2.475.063-3.6.321-2.5.574m144.551.747c-.757.912-1.012 2.58-.628 4.111.519 2.067 1.163 2.514 3.261 2.263 1.438-.172 3.107-1.101 3.71-2.063 2.303-3.678-3.561-7.664-6.343-4.311M722 466.666c-4.899 1.709-14.012 7.399-16.157 10.089-.936 1.173-.281.998 2.157-.575 8.705-5.615 18.239-9.387 26.5-10.482 1.65-.219.525-.444-2.5-.5-3.025-.057-7.525.604-10 1.468m-464.995 26.958c-17.921 6.446-27.203 26.812-25.694 56.376 2.525 49.452 32.462 99.669 78.596 131.836 4.074 2.84 7.785 5.164 8.248 5.164.462 0-1.232-2.812-3.766-6.25-5.841-7.925-10.384-16.941-13.982-27.75-2.672-8.027-2.83-9.473-2.839-26-.01-18.809-.52-15.477 8.957-58.5 3.556-16.139 4.445-35.635 2.011-44.067-3.817-13.221-12.209-24.36-22.196-29.461-4.045-2.066-6.482-2.512-14.84-2.718-7.211-.178-11.254.204-14.495 1.37m620.45 2.831c-2.716 2.715-3.027 4.59-1.305 7.861 1.55 2.944 2.79 3.651 6.445 3.669 3.879.019 6.405-2.668 6.405-6.814 0-6.554-6.892-9.37-11.545-4.716m-1.592 20.795c-.664 1.237-1.781 4.982-2.482 8.321-2.786 13.267-8.475 24.04-19.125 36.223-3.026 3.461-5.31 6.485-5.076 6.72 1.188 1.187 18.085-9.873 24.974-16.348 9.519-8.946 13.8-16.72 14.584-26.486.451-5.619.248-6.694-1.611-8.553-3.035-3.035-9.608-2.963-11.264.123M941 533.301c-3.908 1.987-3.416 9.856 1.261 20.199 9.18 20.297 11.714 45.854 7.645 77.103-.58 4.457-.909 9.593-.73 11.415.302 3.083.648 2.653 5.018-6.234 5.876-11.948 11.256-27.29 13.242-37.76 3.681-19.404 2.871-39.191-2.047-50.024-5.492-12.096-16.482-18.72-24.389-14.699m97.024 31.245c-10.928 3.051-24.46 12.73-41.076 29.379-17.623 17.659-31.442 37.121-44.43 62.575C946.723 667.856 935 695.107 935 697.22c0 .54 2.587-1.386 5.75-4.278 14.384-13.155 39.59-30.741 60.525-42.227 6.476-3.553 19.526-9.757 29-13.786 19.91-8.467 28.051-13.224 33.815-19.76 10.307-11.686 14.7-29.939 9.587-39.827-5.576-10.783-21.892-16.638-35.653-12.796m-493.768 7.099c-6.812 3.358-13.56 13.11-18.896 27.308l-3.212 8.547-6.324.711c-3.478.391-7.274.946-8.434 1.234-1.688.418-2.713-.445-5.112-4.305-3.976-6.395-9.505-9.14-18.412-9.14-13.438 0-28.757 7.056-47.116 21.702l-6.75 5.384v-4.075c0-12.305-10.028-20.981-24.275-21.001-8.352-.012-15.462 2.367-26.146 8.75-14.337 8.566-25.067 20.479-32.192 35.74-2.466 5.284-2.806 7.194-2.844 16-.049 11.431 1.676 16.565 7.534 22.423 5.274 5.274 11.057 7.39 21.529 7.879 13.12.611 22.658-2.495 36.516-11.891l5.622-3.812 2.171 2.311 2.171 2.311-6.793 4.039c-8.958 5.326-15.873 11.522-18.54 16.612-6.855 13.083 2.125 31.938 19.022 39.942 6.363 3.015 7.344 3.185 18.225 3.158 10.275-.025 12.432-.358 20.248-3.13 15.361-5.447 32.107-17.89 41.511-30.842l2.178-3 .031 6.124c.086 16.535 10.256 26.614 23.493 23.281 10.129-2.55 16.781-12.433 21.592-32.077 1.66-6.78 3.515-13.873 4.121-15.761l1.102-3.434 1.914 6.236c2.286 7.447 7.374 13.085 13.45 14.905 6.165 1.847 15.605 1.502 22.508-.824 3.347-1.127 6.145-1.915 6.219-1.75 4.183 9.414 9.872 13.344 19.133 13.218 14.453-.197 27.644-11.984 51.46-45.983l3.834-5.472 2.937 6.275c3.475 7.427 8.059 12.305 14.258 15.173 3.581 1.657 6.486 2.088 14.086 2.088 9.245.001 9.87-.145 18.101-4.223 5.537-2.744 10.958-6.477 15.465-10.65l6.939-6.424 3.74 2.789 3.741 2.789-6.478 5.154C726.539 684.722 721 693.866 721 703.308c0 15.635 18.693 33.15 36.758 34.443 26.173 1.872 57.739-24.615 64.878-54.44l1.721-7.188 2.955 2.486c9.352 7.869 19.912 9.128 30.134 3.591 3.242-1.756 5.949-3.082 6.016-2.946 5.792 11.774 16.612 15.718 28.251 10.299 8.355-3.89 16.372-13.06 24.962-28.553 5.106-9.209 14.544-30.197 15.963-35.5 3.556-13.285-.293-21.839-10.437-23.2-6.321-.848-11.859 3.008-15.929 11.09l-1.959 3.889-.678-7.293c-1.877-20.201-15.032-28.256-26.847-16.44l-3.479 3.478-4.904-2.247c-7.459-3.417-19.084-3.191-26.155.509-2.888 1.511-7.163 4.725-9.5 7.141-14.02 14.494-20.798 21.048-25.071 24.243-4.698 3.513-4.927 3.572-8.999 2.352l-4.178-1.251 8.678-8.136c10.326-9.68 12.207-12.95 11.609-20.172-.351-4.226-1.317-6.449-5.115-11.771-5.993-8.399-9.569-10.936-16.191-11.485-6.946-.576-14.806 1.826-22.254 6.799-6.935 4.631-20.052 17.107-25.949 24.681l-4.039 5.188-.674-5.083c-1.249-9.413-6.339-16.16-14.292-18.94-2.076-.726-7.15-1.313-11.275-1.305-6.316.013-8.567.516-14.259 3.186-12.373 5.804-23.974 19.418-30.824 36.17l-3.199 7.825-3.79-1.488c-5.669-2.227-10.51-.942-15.429 4.096-2.236 2.29-4.725 5.206-5.532 6.48-1.343 2.121-1.437 1.587-1.113-6.291.411-9.976-.611-13.227-5.512-17.53-2.712-2.381-4.337-2.995-7.926-2.995-2.484 0-5.893.712-7.577 1.583-1.683.871-2.896 1.208-2.694.75.201-.458 1.604-3.186 3.117-6.061 8.028-15.264 4.749-27.272-7.447-27.272-6.12 0-9.266 1.596-14.642 7.428C593.369 598.64 586 609.655 586 611.625c0 .885-1.142.539-3.494-1.056-2.197-1.491-5.759-2.634-9.597-3.08l-6.104-.708.578-3.14c.319-1.728 1.119-7.007 1.78-11.733 1.161-8.307 1.121-8.755-1.231-13.5-1.663-3.357-3.538-5.46-5.932-6.656-4.401-2.199-13.391-2.253-17.744-.107M706 607.573c-6.504 3.019-10.474 6.548-13.092 11.637-2.713 5.275-2.363 5.71.956 1.19 3.868-5.266 6.564-7.615 13.577-11.83 6.956-4.18 6.337-4.608-1.441-.997m144 .545c-3.555 1.411-8.838 6.727-11.157 11.229-1.091 2.116-1.807 4.022-1.592 4.237.214.215 2.528-2.086 5.141-5.113 5.105-5.913 10.835-9.462 15.318-9.486 2.169-.012 2.456-.231 1.29-.985-1.888-1.22-5.753-1.169-9 .118m-245.846 5.646c-4.245 4.404-5.547 5.256-6.326 4.14-.834-1.195-.922-1.19-.592.034.653 2.414 2.139 2.202 5.78-.822 2.733-2.271 8.187-9.505 6.791-9.007-.169.06-2.713 2.605-5.653 5.655m-205.714-.827c-5.997 1.436-12.841 5.656-19.342 11.927-7.199 6.944-6.931 6.88 3.232-.766 7.924-5.962 13.365-8.913 19.67-10.667 4.874-1.356 1.816-1.781-3.56-.494m521.018 1.753c-1.018 1.546-5.577 9.915-10.131 18.598-9.249 17.636-16.07 28.642-20.021 32.304-3.532 3.274-10.462 14.652-9.506 15.608 1.564 1.564 8.763-1.487 12.33-5.226 9.625-10.091 26.623-40.493 30.362-54.308 1.634-6.034 1.669-6.934.325-8.278-1.344-1.344-1.71-1.202-3.359 1.302m-587.846 7.604c-1.241.908-1.671 2.322-1.441 4.732.431 4.504 4.615 6.382 7.799 3.501 5.21-4.715-.7-12.369-6.358-8.233m161.657 14.539c-10.814 6.213-11.414 6.861-7.102 7.67 3.884.729 9.572-1.194 17.083-5.777 5.103-3.113 5.757-4.203 3-4.996a54.052 54.052 0 01-3.25-1.064c-.825-.309-5.204 1.566-9.731 4.167m-169.177.075c-5.128 5.128-4.94 19.188.414 30.888 2.963 6.477 8.537 15.495 9.179 14.853.235-.235-.253-3.065-1.083-6.288-3.215-12.475-2.966-21.649.951-35.019.43-1.469-.035-2.824-1.461-4.25-2.604-2.604-5.513-2.671-8-.184m214.109 18.344c-4.522 14.485-9.521 33.762-8.913 34.369.527.527 7.022-20.56 10.771-34.967 1.695-6.515 2.901-12.027 2.68-12.248-.221-.222-2.263 5.559-4.538 12.846M1069 649.583c-1.925.224-7.775.9-13 1.502-32.375 3.73-72.922 20.855-102.971 43.49-10.08 7.594-26.445 22.342-25.661 23.127.238.238 2.615-.666 5.283-2.008 7.538-3.795 19.858-7.606 29.794-9.217 25.181-4.084 47.236.463 82.575 17.024 30.134 14.121 38.278 17.654 48.862 21.196 24.149 8.081 47.292 4.295 63.076-10.318 9.643-8.928 13.674-20.11 12.858-35.661-.369-7.029-1.014-9.677-3.67-15.073-7.568-15.373-28.197-27.244-55.772-32.095-8.739-1.538-34.538-2.764-41.374-1.967m-465.883 41.233c-.196 8.895 3.13 12.361 9.36 9.758 4.554-1.903 4.543-2.7-.019-1.3-3.053.937-3.807.821-5.472-.843-1.082-1.082-2.331-4.349-2.841-7.431l-.911-5.5-.117 5.316m196.693 3.306c-5.728 6.807-18.517 16.951-26.977 21.396-3.758 1.975-6.833 3.755-6.833 3.956 0 .957 8.21-2.041 14.295-5.219 7.638-3.991 18.897-14.525 22.519-21.073 1.273-2.3 2.087-4.182 1.81-4.182-.278 0-2.444 2.305-4.814 5.122M915 693c0 2.667.333 3 3 3s3-.333 3-3-.333-3-3-3-3 .333-3 3m-267.813 10.25c.38 3.94 4.005 5.129 5.742 1.883 1.594-2.979.294-5.133-3.099-5.133-2.733 0-2.933.246-2.643 3.25m-176.443 3.564c-8.578 8.604-21.775 15.062-34.979 17.118-6.188.963-6.152.971 2.95.649 8.125-.287 10.105-.748 16.73-3.895 7.799-3.703 15.74-10.272 18.862-15.602.993-1.696 1.668-3.074 1.5-3.062-.169.012-2.447 2.168-5.063 4.792m421.479 1.743c-5.114 3.581-.823 11.762 5.006 9.546 4.141-1.574 4.981-5.893 1.771-9.103-2.407-2.407-3.84-2.501-6.777-.443m-253.265 3.997c-3.887 3.97-7.149 5.921-18.958 11.338-4.175 1.915 12.834.622 17.518-1.332 8.335-3.477 13.134-11.07 8.548-13.525-2.574-1.377-2.071-1.626-7.108 3.519m319.307 7.478c-13.93 1.464-37.63 8.115-35.576 9.984.446.406 3.286 1.523 6.311 2.481 20.028 6.348 51.425 20.525 72.914 32.923 16.311 9.41 21.618 11.576 30.071 12.273 8.534.704 14.499-.977 18.827-5.305 3.24-3.24 3.407-3.739 2.978-8.908-.924-11.14-11.657-21.78-32.29-32.01-13.22-6.555-24.957-10.032-38.581-11.43-11.094-1.139-13.887-1.14-24.654-.008m-85.225 6.42c-1.914 2.306-.837 5.012 2.133 5.356 3.47.403 5.053-3.439 2.258-5.482-2.299-1.681-2.906-1.664-4.391.126m-695.54 6.496c-12.719 2.145-17.658 11.17-11.339 20.718 4.816 7.279 19.257 15.167 35.606 19.45 11.067 2.9 29.203 3.557 41.047 1.489 11.869-2.073 19.335-4.554 31.112-10.339 10.766-5.288 10.832-5.156-3.926-7.792-19.197-3.43-38.002-8.815-64.5-18.472-13.338-4.86-20.977-6.239-28-5.054m137.382 5.366c-10.05 3.775-14.992 9.162-19.766 21.542-8.98 23.288-13.559 81.302-8.731 110.614 5.727 34.762 19.36 57.954 39.615 67.391 4.928 2.296 6.748 2.564 17.5 2.586 10.278.02 12.835-.311 17.822-2.311 12.662-5.076 24.321-17.116 32.671-33.737l4.245-8.45 4.748 4.441c6.078 5.685 13.407 9.377 22.388 11.277 16.222 3.432 30.848-1.92 45.22-16.547l6.095-6.202 3.902 6.674c4.554 7.786 10.584 13.442 18.72 17.559 14.846 7.51 28.591 5.253 41.713-6.853l5.639-5.201 3.778 4.954c10.015 13.133 23.155 18.218 37.55 14.53 11.064-2.835 20.304-9.555 27.498-20l3.675-5.336 4.668 1.451c6.673 2.075 16.409 1.239 22.688-1.948 6.715-3.409 13.995-11.402 17.574-19.295 1.609-3.549 3.152-6.453 3.428-6.453.276 0 .234 1.688-.094 3.75-.327 2.063-.093 9.128.521 15.7 1.893 20.266 8.259 35.514 20.002 47.907 7.948 8.389 13.609 11.111 23.049 11.082 6.495-.021 8.422-.481 14.382-3.434 12.175-6.032 28.271-23.087 41.151-43.602l5.523-8.797 6.222-.316c13.5-.686 27.272-7.535 37.493-18.647 2.348-2.554 4.422-4.643 4.607-4.643.186 0 2.032 2.745 4.103 6.1 2.071 3.355 6.133 8.43 9.027 11.278 16.357 16.098 34.929 16.243 52.109.407l4.39-4.046 2.091 2.658c5.939 7.55 18.174 9.038 27.902 3.392 4.748-2.755 6.32-3.158 11.5-2.948 4.977.202 7.023-.27 12-2.771 3.3-1.657 6.965-3.725 8.145-4.594 2.031-1.496 2.261-1.417 4.334 1.495 3.653 5.13 9.163 7.295 17.43 6.848 9.011-.487 16.54-3.864 22.6-10.137 2.47-2.557 4.828-4.656 5.241-4.665.413-.01.76 1.896.772 4.233.026 4.967 2.715 11.334 6.096 14.433 3.498 3.206 7.225 4.317 14.487 4.317 8.727 0 13.333-2.431 18.042-9.523 3.518-5.299 3.786-5.478 8.245-5.521 2.534-.024 6.364-.67 8.51-1.434 3.719-1.326 4.065-1.268 7.348 1.237 4.911 3.745 13.285 4.284 19.255 1.238 9.702-4.949 20.767-18.078 28.078-33.314 6.886-14.351 6.385-20.363-2.058-24.67-4.735-2.416-6.209-2.486-10.087-.481-2.882 1.491-2.991 1.46-3.975-1.13-1.886-4.959-5.262-8.647-9.723-10.62-5.345-2.364-9.948-1.817-15.567 1.85-3.736 2.439-3.889 2.456-6.5.719-1.748-1.164-4.599-1.786-8.24-1.799-5.485-.018-5.591-.075-7.184-3.805-4.192-9.816-23.022-10.342-30.995-.867-1.465 1.741-3.644 5.855-4.843 9.143-1.198 3.287-2.472 5.977-2.829 5.977-.358 0-1.445-1.344-2.415-2.986-.97-1.643-3.804-4.182-6.297-5.643-4.256-2.494-5.075-2.621-13.403-2.082-9.482.614-15.332 2.599-21.478 7.287-1.949 1.487-3.644 2.528-3.766 2.313-.123-.214-1.123-2.175-2.223-4.358-1.1-2.183-3.575-5.039-5.5-6.347-9.359-6.358-28.885 1.702-39.345 16.242-1.234 1.715-1.436 1.003-1.844-6.5-.479-8.814-3.181-16.886-6.569-19.627-3.627-2.933-11.887-6.28-15.524-6.289-2.08-.006-5.325.635-7.212 1.423l-3.429 1.433.711-3.183c.392-1.751.712-8.583.712-15.183 0-11.387-.161-12.34-3.15-18.649-2.578-5.441-3.989-7.141-7.76-9.351-6.553-3.841-12.737-5.481-23.307-6.184-11.444-.761-16.309.819-22.204 7.214-2.243 2.434-4.079 4.801-4.079 5.26 0 .459-5.288.829-11.75.823-13.05-.013-18.712 1.469-29.137 7.625-8.857 5.231-21.508 18.028-29.211 29.548L745 804.107v-4.423c0-12.94-6.314-34.491-12.849-43.861-13.614-19.516-40.101-15.949-67.309 9.065l-6.659 6.121-4.945-2.483c-14.276-7.171-29.844-5.461-40.605 4.458l-4.516 4.163-1.122-4.164c-4.508-16.745-35.002-25.205-49.563-13.751-3.475 2.734-6.382 9.206-6.41 14.271-.016 2.939-.942 5.297-3.481 8.868-1.902 2.676-4.233 7.175-5.179 9.997l-1.72 5.132-1.369-7.383c-1.367-7.38-4.062-13.974-7.14-17.475-2.377-2.704-9.837-6.224-15.932-7.518-8.811-1.869-22.637-1.452-27.086.817-3.605 1.839-8.826 6.933-10.894 10.628-.763 1.364-1.502 1.505-3.833.731-2.573-.854-2.945-1.518-3.412-6.088-.633-6.195-3.146-9.858-9.065-13.212-4.756-2.696-5.933-2.763-34.911-1.994-14.195.376-22.344-1.191-45.329-8.718-15.787-5.17-17.241-5.47-23.5-4.853-10.701 1.054-11.353.986-18.084-1.898-7.732-3.313-19.531-4.354-25.205-2.223m596.48 5.186c-.945 2.462.414 4.5 3 4.5 1.333 0 2.683-.675 3-1.5.944-2.462-.415-4.5-3-4.5-1.334 0-2.684.675-3 1.5m-599.181 6.782c-2.687 3.238-9.899 34.186-13.334 57.218-1.738 11.659-1.749 43.656-.017 53.5 4.318 24.549 10.659 39.702 20.889 49.915 8.038 8.025 14.001 10.573 23.129 9.885 6.733-.508 11.667-2.71 17.329-7.735l4.177-3.707 10.294-70.929c5.662-39.011 10.308-71.893 10.323-73.071.021-1.518-.771-2.336-2.721-2.811-1.512-.368-7.768-2.667-13.9-5.108-6.133-2.442-11.613-4.439-12.178-4.439-.565 0-1.96 1.186-3.099 2.635-3.351 4.259-2.756 9.386 1.874 16.17 9.671 14.167 13.996 32.326 14.033 58.911.039 28.121-6.57 56.874-15.014 65.318-2.984 2.984-7.312 2.532-10.352-1.081-5.94-7.059-8.039-21.242-8.061-54.453-.016-25.942 1.221-43.719 4.106-59 3.55-18.798 2.753-23.721-4.43-27.38-8.822-4.494-20.843-6.495-23.048-3.838m576.274 2.173c-4.75 4.749-2.133 11.545 4.447 11.545 4.604 0 7.098-2.399 7.098-6.829 0-6.554-6.892-9.37-11.545-4.716M690.5 762.464c-2.958 1.354-2.917 1.375 2.884 1.455 9.271.128 13.445 1.837 19.736 8.082 4.755 4.72 5.503 5.171 4.86 2.928-1.643-5.728-6.229-10.951-11.295-12.865-3.888-1.469-12.572-1.255-16.185.4m-585.892 8.058c-13.458 3.695-25.058 12.584-30.268 23.195-2.625 5.346-2.838 6.652-2.819 17.283.019 10.956.171 11.79 3.206 17.634 3.839 7.394 9.402 12.385 18.773 16.842 21.507 10.23 55.447 9.802 89-1.124 31.926-10.395 67.174-35.352 90.18-63.852 8.823-10.931 9.236-11.982 3.068-7.824-18.971 12.791-41.693 18.691-63.106 16.385-11.993-1.291-22.811-3.802-49.142-11.408-10.45-3.018-22.762-6.2-27.36-7.07-9.991-1.892-24.761-1.92-31.532-.061m695.343 1.84c-4.955 1.336-10.934 4.688-13.089 7.337-1.209 1.487-1.138 1.583.638.852 10.328-4.253 25.698-5.992 31.889-3.608 3.803 1.465 4.453.655 1.189-1.484-6.523-4.274-12.78-5.213-20.627-3.097m295.089 2.09c-.663.799-1.049 2.261-.859 3.25.458 2.378 4.75 2.371 6.21-.011.888-1.448.722-2.095-.832-3.25-2.427-1.802-3.016-1.8-4.519.011M1068.2 788.2c-2.135 2.135-1.423 6.608 1.341 8.419 3.803 2.491 7.459.581 7.459-3.898 0-3.995-1.509-5.721-5-5.721-1.43 0-3.14.54-3.8 1.2m-797.7 7.023c-16.915 20.981-45.306 45.063-73.5 62.344-12.501 7.663-20.189 15.041-24.233 23.256-2.716 5.515-3.247 7.832-3.589 15.647-.425 9.727 1.036 14.703 5.502 18.742 7.352 6.648 22.223 7.687 32.212 2.25 7.135-3.883 13.029-9.219 21.727-19.669 16.8-20.185 28.654-42.361 37.834-70.777 3.912-12.107 9.835-35.658 9.339-37.128-.16-.477-2.542 1.924-5.292 5.335m706.535.711c-1.339 2.502-1.323 2.635.536 4.495.87.869 3.246 1.571 5.319 1.571 5.409 0 12.759 2.45 19.36 6.453 3.163 1.918 5.75 3.155 5.75 2.75 0-1.91-9.796-11.618-14.37-14.242-6.405-3.673-14.897-4.199-16.595-1.027m122.522 6.289c-2.124 3.031-1.955 6.379.443 8.777 4.13 4.13 12 1.179 12-4.5 0-5.884-9.122-9.02-12.443-4.277m-75.484 7.412c-1.14 1.449-2.073 2.987-2.073 3.418 0 .431-.291 1.608-.647 2.615-.355 1.008.584.032 2.087-2.168 1.503-2.2 3.455-4.562 4.337-5.25 1.472-1.146 1.471-1.25-.013-1.25-.89 0-2.552 1.186-3.691 2.635m-93.143 10.047c-3.483 3.147-7.93 9.803-7.93 11.87 0 .347 2.024-1.854 4.499-4.891 4.756-5.839 8.7-9.102 12.001-9.928 1.329-.333.911-.54-1.247-.617-2.433-.087-4.269.807-7.323 3.566m147.075-.176c.688.829 1.597 2.966 2.02 4.75l.77 3.244.103-3.55c.098-3.41-1.277-5.95-3.22-5.95-.508 0-.36.678.327 1.506M270.143 847.25c-4.195 15.299-5.305 23.138-5.278 37.25.049 25.368 6.276 41.369 18.561 47.698 4.183 2.155 11.666 2.11 13.859-.083 2.156-2.156 1.019-8.084-2.595-13.527-7.818-11.774-13.26-25.065-16.09-39.292-1.95-9.803-3.6-26.257-3.6-35.902 0-4.067-.399-7.394-.886-7.394s-2.274 5.063-3.971 11.25m715.416 11.963c-4.047 5.074-4.408 5.816-1.994 4.096 2.369-1.686 8.453-10.332 7.249-10.301-.173.005-2.538 2.797-5.255 6.205m-72.417 6.81c-.6 1.719-2.564 4.506-4.366 6.194-3.067 2.872-3.117 3.019-.776 2.307 3.8-1.156 5.894-3.443 6.6-7.208.838-4.465-.072-5.271-1.458-1.293M841 865.38c0 1.74 3.584 5.871 6.322 7.287 5.452 2.819 13.951 1.323 17.623-3.101 1.178-1.419.961-1.425-2.29-.066-6.641 2.775-14.475 1.486-19.905-3.276-.962-.843-1.75-1.223-1.75-.844m186.495 5.985c-1.103 1.724-3.578 3.922-5.5 4.883-3.32 1.661-3.364 1.749-.881 1.75 2.808.002 7.404-3.904 8.442-7.174.985-3.104.125-2.878-2.061.541M496 885.626c0 .311.935 1.879 2.079 3.485 4.064 5.707 11.727 7.499 18.443 4.312 3.525-1.673 6.038-5.274 2.739-3.926-7.904 3.23-12.666 2.753-19.617-1.964-2.004-1.36-3.644-2.218-3.644-1.907m165.198 5.874c-5.961 21.556-3.431 41.193 6.811 52.857 3.716 4.233 7.042 5.185 10.985 3.146 5.475-2.831 5.081-6.457-1.662-15.29-7.036-9.219-11.452-20.742-13.686-35.713l-1.342-9-1.106 4M397 910.5c0 1.808.537 2.5 1.941 2.5 2.356 0 3.274-1.275 2.455-3.41-1.024-2.669-4.396-1.971-4.396.91m17.667 8.167c-1.105 1.105-.75 5.85.533 7.133.66.66 2.145 1.2 3.3 1.2 1.155 0 2.64-.54 3.3-1.2.66-.66 1.2-2.145 1.2-3.3 0-1.155-.54-2.64-1.2-3.3-1.283-1.283-6.028-1.638-7.133-.533M400 922.694c-6.529 2.333-4.443 11.306 2.629 11.306 3.836 0 5.371-1.613 5.371-5.643 0-4.53-3.747-7.183-8-5.663M305 939c-2.403 2.403-2.538 4.786-.443 7.777 3.179 4.539 10.443 1.969 10.443-3.693 0-5.456-6.126-7.958-10-4.084m380.455 11.455c-1.35 1.35-2.455 3.567-2.455 4.927 0 2.926 4.218 6.618 7.562 6.618 2.599 0 6.438-4.282 6.438-7.18 0-2.549-4.384-6.82-7-6.82-1.15 0-3.195 1.105-4.545 2.455" fill="undefined" fill-rule="evenodd"/></svg>